<svg xmlns="http://www.w3.org/2000/svg" viewBox="0 0 72 72"><defs><style>.cls-1{fill:#373737;}</style></defs><g id="Camada_3" data-name="Camada 3"><path class="cls-1" d="M61.23,4.77a6,6,0,0,1,6,6V61.23a6,6,0,0,1-6,6H10.77a6,6,0,0,1-6-6V10.77a6,6,0,0,1,6-6H61.23m0-4H10.77a10,10,0,0,0-10,10V61.23a10,10,0,0,0,10,10H61.23a10,10,0,0,0,10-10V10.77a10,10,0,0,0-10-10Z"/><path class="cls-1" d="M46.63,28a8.08,8.08,0,0,1-1.27,4.54,13.33,13.33,0,0,1-3.68,3.55L38,38.58c-.92.6-1.76,1.19-2.52,1.75a14.78,14.78,0,0,0-2,1.69,6.88,6.88,0,0,0-1.29,1.81,4.76,4.76,0,0,0-.46,2.07v.17h13.6a.85.85,0,0,1,.6.24.75.75,0,0,1,.26.58v4.43a.89.89,0,0,1-.86.86H26.23a.89.89,0,0,1-.86-.86V46.93a12.07,12.07,0,0,1,1.7-6.37A15.6,15.6,0,0,1,31.22,36l4-2.8c1-.65,1.71-1.19,2.28-1.61a9.56,9.56,0,0,0,1.34-1.12,2.58,2.58,0,0,0,.62-1,4.43,4.43,0,0,0,.15-1.26,2.17,2.17,0,0,0-1-2,7.42,7.42,0,0,0-3.59-.6c-1.32,0-2.73.06-4.24.17s-2.92.25-4.24.39h-.08a.7.7,0,0,1-.56-.26.91.91,0,0,1-.21-.6V22a.65.65,0,0,1,.23-.54,1.49,1.49,0,0,1,.58-.28,33.48,33.48,0,0,1,9.17-1.34c4,0,6.77.69,8.45,2.05S46.63,25.29,46.63,28Z"/></g></svg>