<svg xmlns="http://www.w3.org/2000/svg" viewBox="0 0 72 72"><defs><style>.cls-1{fill:#373737;}</style></defs><g id="Camada_3" data-name="Camada 3"><path class="cls-1" d="M61.23,4.77a6,6,0,0,1,6,6V61.23a6,6,0,0,1-6,6H10.77a6,6,0,0,1-6-6V10.77a6,6,0,0,1,6-6H61.23m0-4H10.77a10,10,0,0,0-10,10V61.23a10,10,0,0,0,10,10H61.23a10,10,0,0,0,10-10V10.77a10,10,0,0,0-10-10Z"/><path class="cls-1" d="M45.66,47.12a7.81,7.81,0,0,1-2.3,3,9.79,9.79,0,0,1-3.55,1.72,17.58,17.58,0,0,1-4.56.56A33.62,33.62,0,0,1,30.36,52a26.8,26.8,0,0,1-4-.86,1.48,1.48,0,0,1-.58-.27.66.66,0,0,1-.24-.54V47a.73.73,0,0,1,.22-.56.77.77,0,0,1,.56-.22h.08c1.52.15,3,.25,4.54.31s2.85.08,4,.08a4.7,4.7,0,0,0,3.29-.93,3.64,3.64,0,0,0,1-2.74v-.78a6.48,6.48,0,0,0-.16-1.41,3.22,3.22,0,0,0-.53-1.19,2.68,2.68,0,0,0-1.08-.82,4.31,4.31,0,0,0-1.72-.3H28.15a.77.77,0,0,1-.58-.26.85.85,0,0,1-.24-.6V33.87a.73.73,0,0,1,.82-.82h7.4a4.1,4.1,0,0,0,1.74-.32,3.32,3.32,0,0,0,1.14-.84A3,3,0,0,0,39,30.7a5.45,5.45,0,0,0,.18-1.41v-.61a3.17,3.17,0,0,0-.89-2.35c-.59-.6-1.71-.89-3.37-.89-.75,0-1.46,0-2.13,0l-2,.11-2.06.15c-.7.06-1.46.13-2.26.22h-.09a.75.75,0,0,1-.77-.78V21.76a.64.64,0,0,1,.26-.53,1.66,1.66,0,0,1,.6-.28,36.84,36.84,0,0,1,4-.92,28.49,28.49,0,0,1,4.82-.4A21.7,21.7,0,0,1,40,20.1a9.64,9.64,0,0,1,3.53,1.53,6.88,6.88,0,0,1,2.21,2.73,9.66,9.66,0,0,1,.78,4.09v.6a8,8,0,0,1-3.83,6.59,7,7,0,0,1,2.81,2.64,7.24,7.24,0,0,1,1,3.81v.77A10.31,10.31,0,0,1,45.66,47.12Z"/></g></svg>