<svg xmlns="http://www.w3.org/2000/svg" viewBox="0 0 72 72"><defs><style>.cls-1{fill:#373737;}</style></defs><g id="Camada_3" data-name="Camada 3"><path class="cls-1" d="M61.23,4.77a6,6,0,0,1,6,6V61.23a6,6,0,0,1-6,6H10.77a6,6,0,0,1-6-6V10.77a6,6,0,0,1,6-6H61.23m0-4H10.77a10,10,0,0,0-10,10V61.23a10,10,0,0,0,10,10H61.23a10,10,0,0,0,10-10V10.77a10,10,0,0,0-10-10Z"/><path class="cls-1" d="M32.11,50.23V40.52h7.77v9.71a2,2,0,0,0,1.94,2h5.83a2,2,0,0,0,1.94-2V36.64H52.9A1,1,0,0,0,53.54,35L37.3,20.32a2,2,0,0,0-2.61,0L18.45,35a1,1,0,0,0,.64,1.69H22.4V50.23a2,2,0,0,0,1.94,2h5.83A2,2,0,0,0,32.11,50.23Z"/></g></svg>