<svg xmlns="http://www.w3.org/2000/svg" width="54.163" height="53.999" viewBox="0 0 54.163 53.999">
  <g id="Luz" transform="translate(-2289.905 -315.798)">
    <g id="Grupo_6502" data-name="Grupo 6502" transform="translate(2289.905 315.798)">
      <path id="Caminho_7661" data-name="Caminho 7661" d="M2887.251,315.8a.879.879,0,0,0-.878.878v6.366a.878.878,0,0,0,1.756,0v-6.366A.879.879,0,0,0,2887.251,315.8Z" transform="translate(-2859.785 -315.798)" fill="#333"/>
      <path id="Caminho_7662" data-name="Caminho 7662" d="M2469.685,482.152a.878.878,0,1,0-1.241,1.242l4.5,4.5a.878.878,0,0,0,1.242-1.242Z" transform="translate(-2460.239 -474.491)" fill="#333"/>
      <path id="Caminho_7663" data-name="Caminho 7663" d="M2298.027,895.911a.879.879,0,0,0-.878-.878h-6.366a.878.878,0,0,0,0,1.756h6.366A.879.879,0,0,0,2298.027,895.911Z" transform="translate(-2289.905 -869.213)" fill="#333"/>
      <path id="Caminho_7664" data-name="Caminho 7664" d="M2460.757,1212.519l-4.5,4.5a.878.878,0,1,0,1.242,1.242l4.5-4.5a.878.878,0,0,0-1.242-1.242Z" transform="translate(-2448.595 -1172.302)" fill="#333"/>
      <path id="Caminho_7665" data-name="Caminho 7665" d="M3187.863,1224.7a.878.878,0,1,0-1.241,1.242l4.5,4.5a.878.878,0,0,0,1.242-1.242Z" transform="translate(-3146.405 -1183.944)" fill="#333"/>
      <path id="Caminho_7666" data-name="Caminho 7666" d="M3330.043,912.268h-6.366a.878.878,0,0,0,0,1.756h6.366a.878.878,0,0,0,0-1.756Z" transform="translate(-3276.758 -885.68)" fill="#333"/>
      <path id="Caminho_7667" data-name="Caminho 7667" d="M3199.43,500.337a.872.872,0,0,0,.621-.257l4.5-4.5a.878.878,0,0,0-1.242-1.242l-4.5,4.5a.878.878,0,0,0,.621,1.5Z" transform="translate(-3158.049 -486.134)" fill="#333"/>
    </g>
    <path id="Caminho_7668" data-name="Caminho 7668" d="M2780.868,1345h-9.705a1.129,1.129,0,0,0-1.129,1.129v2.461a1.129,1.129,0,0,0,1.129,1.129h.737v1.226a2.177,2.177,0,0,0,2.177,2.177h3.384a2.177,2.177,0,0,0,2.177-2.177v-1.226h1.231a1.129,1.129,0,0,0,1.129-1.129v-2.461A1.129,1.129,0,0,0,2780.868,1345Z" transform="translate(-458.727 -983.324)" fill="#333"/>
    <path id="Caminho_7669" data-name="Caminho 7669" d="M2615.543,597.72a13.406,13.406,0,0,0-13.555,13.253,13.039,13.039,0,0,0,3.449,8.833,12.848,12.848,0,0,1,2.551,4.215l1.481,3.994a1.174,1.174,0,0,0,1.1.767h9.829a1.175,1.175,0,0,0,1.1-.773l1.341-3.682a12.961,12.961,0,0,1,2.707-4.416,13.042,13.042,0,0,0,3.545-8.936A13.407,13.407,0,0,0,2615.543,597.72Zm.029,5.759a8.713,8.713,0,0,0-3.759,1.07c-2.484,1.384-3.862,3.846-4.1,7.319a.655.655,0,0,1-.653.611h-.045a.655.655,0,0,1-.61-.7c.332-4.945,2.8-7.3,4.818-8.405a9.893,9.893,0,0,1,4.342-1.206.655.655,0,0,1,0,1.31Z" transform="translate(-298.172 -269.355)" fill="#333"/>
  </g>
</svg>
